<svg xmlns="http://www.w3.org/2000/svg" viewBox="0 0 1503 829.01">
    <g id="Logo">
      <g id="ONLINE">
        <polygon id="E" points="996 828 996 746 1062 746 1062 763 1015 763 1015 777 1051 777 1051 794 1015 794 1015 811 1062 811 1062 828 996 828"/>
        <polygon id="N" points="870.5 828.5 870.5 745.5 893.5 745.5 925.5 797.5 925.5 745.5 945.5 745.5 945.5 828.5 924.5 828.5 890.5 773.5 890.5 828.5 870.5 828.5"/>
        <rect id="I" x="801" y="746" width="22" height="82"/>
        <polygon id="L" points="694 828 694 746 714 746 714 809 760 809 760 828 694 828"/>
        <polygon id="N-2" data-name="N" points="569.5 828.5 569.5 745.5 592.5 745.5 624.5 797.5 624.5 745.5 644.5 745.5 644.5 828.5 623.5 828.5 589.5 773.5 589.5 828.5 569.5 828.5"/>
        <path id="O" d="M502.5,744h-41c-12,0-15,5.18-15,15.55v56c-.58,8.11,2.51,13.68,14,13.48h42c12,0,17-4.15,17-13.48v-57C519.5,747.11,513.5,744,502.5,744ZM498,814H468.5c-4,0-4.75-.52-4.75-4.92V765.77c0-3.11,1.75-5.06,4.88-5.06H497.5c3,0,4.94,1.95,4.94,5.12l.06,43.47C502.5,812.41,501.5,814,498,814Z"/>
      </g>
      <g id="BRAND">
        <polygon id="N-3" data-name="N" points="1081.5 233.5 1081.5 150.5 1104.5 150.5 1136.5 202.5 1136.5 150.5 1156.5 150.5 1156.5 233.5 1135.5 233.5 1101.5 178.5 1101.5 233.5 1081.5 233.5"/>
        <polygon id="L-2" data-name="L" points="626 233 626 151 646 151 646 214 692 214 692 233 626 233"/>
        <polygon id="E-2" data-name="E" points="971 233 971 151 1037 151 1037 168 990 168 990 182 1026 182 1026 199 990 199 990 216 1037 216 1037 233 971 233"/>
        <polygon id="E-3" data-name="E" points="735 233 735 151 801 151 801 168 754 168 754 182 790 182 790 199 754 199 754 216 801 216 801 233 735 233"/>
        <polygon id="E-4" data-name="E" points="347 233 347 151 413 151 413 168 366 168 366 182 402 182 402 199 366 199 366 216 413 216 413 233 347 233"/>
        <polygon id="X" points="530 233 499.74 189.7 527 151 508 151 490 175.76 472 151 453 151 480.26 189.7 450 233 470 233 490 203.88 510 233 530 233"/>
        <path id="A" d="M155,151H133l-32,81h20l7-18h32l7,18h20Zm-11,49H133l11-27,11,27Z"/>
        <path id="P" d="M285,151H229.72a.72.72,0,0,0-.72.72v80.56a.72.72,0,0,0,.72.72h15.56a.72.72,0,0,0,.72-.72V206.72a.72.72,0,0,1,.72-.72H286c8,0,11-5,11-11V163A12.16,12.16,0,0,0,285,151Zm-4,39.22a2.77,2.77,0,0,1-2.78,2.78H247.78a2.77,2.77,0,0,1-2.78-2.78V168.78a2.77,2.77,0,0,1,2.78-2.78h30.44a2.77,2.77,0,0,1,2.78,2.78Z"/>
        <path id="G" d="M884,185.71h37v35.22c0,7-7,12.07-15,12.07H863c-10,0-15-5-15-12.07V165.59c0-10.06,3-14.59,14.5-14.59H909c9,0,12.25,4.53,12.25,12.33v15.34H902v-9.06c0-3,0-5-3-5H869c-3,0-4,2-4,4v43.26c0,3,1,5,4,5h31a3.16,3.16,0,0,0,3.5-3.52v-9.56c0-2-.5-3-2.5-3H884Z"/>
        <path id="D" d="M1267,151h-59v82h58c11,0,15-7,15-15V165A14.3,14.3,0,0,0,1267,151Zm-3,58.46a6.54,6.54,0,0,1-6.54,6.54H1224V167h33.46a6.54,6.54,0,0,1,6.54,6.54Z"/>
        <path id="S" d="M1347,204h-19v16c0,8,10,13,13,13h41c9,0,15-4,15-11V201c-.87-21-33.14-12.91-45.88-20.6a8.78,8.78,0,0,1-4.12-7.56V170a5.22,5.22,0,0,1,5.5-5.5H1376c3,0,4.25,1.5,4.25,4.25V178H1395V165c0-10-4-14-13-14h-38c-9,0-14,9-14,12v17c0,16.4,33.62,22,45.72,23.54a4.88,4.88,0,0,1,4.28,4.85V215a3,3,0,0,1-3,3h-28a2,2,0,0,1-2-2Z"/>
        <polygon id="T" points="1402 149 1402 151 1405 151 1405 158 1407 158 1407 151 1410 151 1410 149 1402 149"/>
        <path id="M" d="M1412,158v-9h2l2,2.93a0,0,0,0,0,.08,0l2-2.93h2v9h-2v-6l-2,2.93a0,0,0,0,1-.08,0l-2-2.93v6Z"/>
      </g>
      <g id="Design">
        <g id="Top">
          <polygon points="666 62 658 74 343 74 351 61 666 62" fill="#8d8b8c"/>
          <polygon points="838 62 846 74 1161 74 1153 61 838 62" fill="#8d8b8c"/>
        </g>
        <polygon id="Logo-2" data-name="Logo" points="752 0 706 81 718 94 747 75 729 75 752 36 775 75 757 75 786 94 798 81 752 0" fill="#8d8b8c"/>
        <polygon id="Bottom" points="753 646 29 646 34 656 109 656 118 669 753 669 1387 669 1396 656 1471 656 1476 646 753 646" fill="#8d8b8c"/>
      </g>
      <g id="Series">
        <path id="G-2" data-name="G" d="M49,442v34H59v56H32V347H59v44H93V330c0-8-8-15-15-15H15c-8,0-15,8-15,16V549c0,7,8,16,15,16H76c7,0,16-6,16-13V442Z"/>
        <polygon id="L-3" data-name="L" points="137 313 137 566 208 566 208 533 169 533 169 313 137 313"/>
        <polygon id="L-4" data-name="L" points="654 313 654 566 725 566 725 533 686 533 686 313 654 313"/>
        <path id="O-2" data-name="O" d="M319,313H262c-8,0-17,11-17,16V550c0,8,9,16,18,16h56c9,0,18-10,18-18V333C337,324,330,313,319,313ZM306,525.67a7.33,7.33,0,0,1-7.33,7.33H283.33a7.33,7.33,0,0,1-7.33-7.33V352.33a7.33,7.33,0,0,1,7.33-7.33h15.34a7.33,7.33,0,0,1,7.33,7.33Z"/>
        <path id="B" d="M459,433s10-3,10-11V330c0-9-7-17-15-17H382V566h76c9,0,14.5-6,14.5-16V448.5C473,443,466,433,459,433Zm-46-16.26V348.26a3.26,3.26,0,0,1,3.26-3.26h18.48a3.26,3.26,0,0,1,3.26,3.26v68.48a3.26,3.26,0,0,1-3.26,3.26H416.26A3.26,3.26,0,0,1,413,416.74Zm29,112a3.26,3.26,0,0,1-3.26,3.26H417.26a3.26,3.26,0,0,1-3.26-3.26V454.26a3.26,3.26,0,0,1,3.26-3.26h21.48a3.26,3.26,0,0,1,3.26,3.26Z"/>
        <path id="A-2" data-name="A" d="M594,313H534L507,566h33l6-51h36l6,51h33ZM564,483H550l14-138,14,138Z"/>
        <path id="S-2" data-name="S" d="M814,488v61c0,8,7,15,13,15h63c9,0,15-4,15-13V434a13.77,13.77,0,0,0-13.5-13.5L847,420V346h26v41h32V332c0-8-6-17-15-17H830c-7,0-15.5,6-15.5,15.5V435c0,8,4.5,17,12.5,17h46v81H846V488Z"/>
        <path id="S-3" data-name="S" d="M1412,488v61c0,8,7,15,13,15h63c9,0,15-4,15-13V434a13.77,13.77,0,0,0-13.5-13.5L1445,420V346h26v41h32V332c0-8-6-17-15-17h-60c-7,0-15.5,6-15.5,15.5V435c0,8,4.5,17,12.5,17h46v81h-27V488Z"/>
        <polygon id="E-5" data-name="E" points="951 313 951 566 1034 566 1034 532 983 532 983 447 1017 447 1017 415 983 415 983 346 1032 346 1032 313 951 313"/>
        <polygon id="E-6" data-name="E" points="1287 313 1287 566 1370 566 1370 532 1319 532 1319 447 1353 447 1353 415 1319 415 1319 346 1368 346 1368 313 1287 313"/>
        <rect id="I-2" data-name="I" x="1209" y="313" width="34" height="253"/>
        <path id="R" d="M1154,440c6,0,7-4,7-10V329c0-9-8-16-15-16h-70V566h32V459h26V566h32V455C1166,448,1160,440,1154,440Zm-23-16a4,4,0,0,1-4,4h-16a4,4,0,0,1-4-4V349a4,4,0,0,1,4-4h16a4,4,0,0,1,4,4Z"/>
      </g>
    </g>
</svg>
